<?xml version="1.0" encoding="utf-8"?>
<!-- Generator: Adobe Illustrator 16.0.0, SVG Export Plug-In . SVG Version: 6.00 Build 0)  -->
<!DOCTYPE svg PUBLIC "-//W3C//DTD SVG 1.1//EN" "http://www.w3.org/Graphics/SVG/1.1/DTD/svg11.dtd">
<svg version="1.1" xmlns="http://www.w3.org/2000/svg" xmlns:xlink="http://www.w3.org/1999/xlink" x="0px" y="0px" width="240px"
	 height="116px" viewBox="0 0 240 116" enable-background="new 0 0 240 116" xml:space="preserve">
<g id="Layer_2">
	<rect fill="#222222" width="240" height="116"/>
</g>
<g id="Layer_1">
	<path fill="none" d="z"/>
	<path fill="none" stroke="#86FF40" stroke-linecap="round" stroke-linejoin="round" stroke-miterlimit="10" d="M144.221,53.934
		c2.623-2.853-2.554-5.247-5.802-3.284c-8.028,4.852,2.687,11.081,2.461,17.19c-0.206,5.577-9.099,4.291-8.948,0.764
		c0.227-5.387,17.37-1.53,17.711-9.586c-2.427,1.652-3.146,10.58,0.783,11.754c2.699-3.858,4.232-8.864,3.91-13.561
		c-0.212-3.066-0.625-6.663-3.814-2.955c-5.467,6.354,9.537,3.03,11.765-0.694c-2.037,1.758-4.058,11.599-0.374,13.487
		c3.926,2.014,6.479-10.906,6.253-13.453c-1.672,2.269-3.09,10.798,1.215,11.64c4.416,0.865,5.911-9.305,5.925-12.146
		c-1.679,3.783-1.771,9.163-1.516,13.502c3.102-4.222,5.184-10.568,7.518-15.473c0.402,2.899-2.17,14.031,1.752,14.047
		c3.69,0.018,5.404-10.553,11.166-10.387c-4.343-0.912-8.761,8.435-6.649,11.734c4.646,7.271,17.386-25.097,18.094-27.76
		c0.614-2.309,3.619-10.674-0.664-11.029c-3.682-0.306-7.679,13.899-8.194,16.233c-1.041,4.69-2.767,28.959,8.062,26.401"/>
	<path fill="none" stroke="#86FF40" stroke-linecap="round" stroke-linejoin="round" stroke-miterlimit="10" d="M89.048,34.07
		c-0.34,7.199-1.661,14.47-2.314,21.668c-0.363,4-2.04,11.719,1.996,14.662c4.022,2.932,6.989-1.367,7.121-5.188"/>
	<path fill="none" stroke="#86FF40" stroke-linecap="round" stroke-linejoin="round" stroke-miterlimit="10" d="M79.335,58.443
		c6.994-2.713,15.478-10.805,20.433-17.371c0.388,2.387,0.121,9.237-0.291,16.188c-0.411,6.953-0.967,14.009-1.159,16.804
		c0.577-4.233,3.164-15.414,7.998-16.633c0.021,2.35-1.854,9.184,0.766,10.424c5.091,2.406,9.23-10.448,9.039-13.824
		c-4.682,0.113-5.847,10.457-3.966,13.621c3.318,5.592,8.275-0.103,11.543-2.666"/>
	<path fill="none" stroke="#86FF40" stroke-linecap="round" stroke-linejoin="round" stroke-miterlimit="10" d="M41.384,53.879
		c3.375-2.995-3.211-5.841-5.442-1.359c-2.701,5.419,3.819,11.882,3.179,17.26c-3.343,0.668-7.441-1.359-6.607-5.255"/>
	<path fill="none" stroke="#86FF40" stroke-linecap="round" stroke-linejoin="round" stroke-miterlimit="10" d="M44.71,65.41
		c1.609-1.549,10.686-9.492,8.911-13.312c-1.302-2.802-3.932-0.405-5.483,1.517c-2.471,3.062-3.25,10.019-1.833,13.619
		c4.744,12.046,21.938-11.287,19.31-15.438c-3.284-5.182-7.131,8.084-6.648,10.569c1.295,6.671,16.161,8.827,17.23,2.601"/>
	<path fill="none" d="z"/>
</g>
</svg>
