<svg xmlns="http://www.w3.org/2000/svg" width="92.3" height="41" viewBox="0 0 92.3 41" enable-background="new 0 0 92.3 41" >

<path class="t"  fill="none" stroke="#53ff4a" stroke-linecap="round" stroke-linejoin="round" stroke-miterlimit="10" d="M57.1,0.5c-0.3,7.2-1.7,14.5-2.3,21.7c-0.4,4-2,11.7,2,14.7c4,2.9,7-1.4,7.1-5.2"/>
<path class="he" fill="none" stroke="#53ff4a" stroke-linecap="round" stroke-linejoin="round" stroke-miterlimit="10" d="M47.4,24.9c7-2.7,15.5-10.8,20.4-17.4c0.4,2.4,0.1,9.2-0.3,16.2c-0.4,7-1,14-1.2,16.8c0.6-4.2,3.2-15.4,8-16.6
	c0,2.3-1.9,9.2,0.8,10.4c5.1,2.4,9.2-10.4,9-13.8c-4.7,0.1-5.8,10.5-4,13.6c3.3,5.6,8.3-0.1,11.5-2.7"/>
<path class="s" fill="none" stroke="#53ff4a" stroke-linecap="round" stroke-linejoin="round" stroke-miterlimit="10" d="M9.5,20.3c3.4-3-3.2-5.8-5.4-1.4c-2.7,5.4,3.8,11.9,3.2,17.3c-3.3,0.7-7.4-1.4-6.6-5.3"/>
<path class="ee" fill="none" stroke="#53ff4a" stroke-linecap="round" stroke-linejoin="round" stroke-miterlimit="10" d="M12.8,31.8c1.6-1.5,10.7-9.5,8.9-13.3c-1.3-2.8-3.9-0.4-5.5,1.5c-2.5,3.1-3.2,10-1.8,13.6
	c4.7,12,21.9-11.3,19.3-15.4c-3.3-5.2-7.1,8.1-6.6,10.6c1.3,6.7,16.2,8.8,17.2,2.6"/>
</svg>
