<svg xmlns="http://www.w3.org/2000/svg" width="76.3" height="44.9" viewBox="0 0 76.3 44.9" enable-background="new 0 0 76.3 44.9">
<path class="sound" class="s" fill="none" stroke="#53ff4a" stroke-linecap="round" stroke-linejoin="round" stroke-miterlimit="10" d="M12.8,26.7c2.6-2.9-2.6-5.2-5.8-3.3c-8,4.9,2.7,11.1,2.5,17.2c-0.2,5.6-9.1,4.3-8.9,0.8
	c0.2-5.4,17.4-1.5,17.7-9.6c-2.4,1.7-3.1,10.6,0.8,11.8c2.7-3.9,4.2-8.9,3.9-13.6c-0.2-3.1-0.6-6.7-3.8-3c-5.5,6.4,9.5,3,11.8-0.7
	c-2,1.8-4.1,11.6-0.4,13.5c3.9,2,6.5-10.9,6.3-13.5C35.1,28.6,33.6,37.2,38,38c4.4,0.9,5.9-9.3,5.9-12.1c-1.7,3.8-1.8,9.2-1.5,13.5
	c3.1-4.2,5.2-10.6,7.5-15.5c0.4,2.9-2.2,14,1.8,14c3.7,0,5.4-10.6,11.2-10.4c-4.3-0.9-8.8,8.4-6.6,11.7c4.6,7.3,17.4-25.1,18.1-27.8
	c0.6-2.3,3.6-10.7-0.7-11c-3.7-0.3-7.7,13.9-8.2,16.2c-1,4.7-2.8,29,8.1,26.4"/>
</svg>
