<svg xmlns="http://www.w3.org/2000/svg" width="62.2px" height="27.751px" viewBox="132.132 22.999 62.2 27.751" enable-background="new 132.132 22.999 62.2 27.751">
  <path class="voice__v" fill="none" stroke="#86FF40" stroke-linecap="round" stroke-linejoin="round" stroke-miterlimit="10" d="M135.498,31.166
    c0.48,0.508-1.848,9.425-2.264,12.035c-0.329,2.067-1.605,6.369,0.998,6.983c4.867,1.147,7.553-13.102,7.209-15.997
    c-2.998,3.024,7.176,0.688,8.708-1.681"/>
  <path class="voice__o" fill="none" stroke="#86FF40" stroke-linecap="round" stroke-linejoin="round" stroke-miterlimit="10" d="M150.131,33.059
    c-1.358,2.263-6.094,16.162,0.619,13.112c3.736-1.697,4.492-13.98,0.533-11.672c3.366,1.399,7.878-0.811,11.453-0.691
    c-1.749,1.879-4.656,9.446-2.845,11.712c1.719,2.149,5.542,0.011,5.94-2.355"/>
  <path class="voice__i"  fill="none" stroke="#86FF40" stroke-linecap="round" stroke-linejoin="round" stroke-miterlimit="10" d="M162.498,24.499
    c1.377-0.947,2.442-0.825,2.283,0.95c-0.579,0.087-1.035,0.05-1.563-0.074c-0.257-1.229,0.329-1.54,1.28-1.875"/>
  <path class="voice__ce"  fill="none" stroke="#86FF40" stroke-linecap="round" stroke-linejoin="round" stroke-miterlimit="10" d="M174.498,33.499
    c0.597-0.498,0.992-0.808,0.617-1.949c-5.054,0.025-9.532,10.867-7.307,14.994c3.033,5.627,14.069-4.209,16.02-7.319
    c0.812-1.295,2.395-4.411,0.681-5.414c-3.663-2.145-6.621,7.314-6.71,9.294c-0.401,8.981,12.684,9.13,16.033,2.394"/>
</svg>